<svg width="128" height="128" viewBox="0 0 128 128" fill="none" xmlns="http://www.w3.org/2000/svg">
<mask id="mask0_191_24" style="mask-type:alpha" maskUnits="userSpaceOnUse" x="0" y="0" width="128" height="128">
<rect width="128" height="128" fill="#4071AC"/>
</mask>
<g mask="url(#mask0_191_24)">
<rect width="128" height="128" fill="#4071AC"/>
<path d="M58.78 14.52H85.52C92.7067 15.08 98.68 16.62 103.44 19.14C108.573 21.8467 112.073 25.2067 113.94 29.22C115.9 33.14 116.18 37.7133 114.78 42.94C112.167 53.02 105.307 61.84 94.2 69.4C91.4933 71.1733 88.6467 72.8067 85.66 74.3C76.7933 78.6867 67.6933 81.02 58.36 81.3H55.56L54.86 80.88L54.16 80.46L52.62 85.22C49.9133 93.5267 46.9733 101.553 43.8 109.3C43.0533 111.26 42.12 112.847 41 114.06C38.1067 116.767 34.7467 118.26 30.92 118.54C30.1733 118.54 29.5667 118.4 29.1 118.12C28.82 117.933 28.4933 117.607 28.12 117.14C27.9333 116.58 28.3067 115.133 29.24 112.8C38.76 89.84 45.3867 66.2267 49.12 41.96C50.6133 31.32 51.2667 25.8133 51.08 25.44C50.8 25.2533 48.9333 25.4867 45.48 26.14C40.2533 26.98 36.4733 28.4267 34.14 30.48C32.6467 31.9733 31.5267 33.8867 30.78 36.22C30.3133 37.4333 29.6133 38.6467 28.68 39.86C25.32 42.7533 21.7733 44.3867 18.04 44.76C16.8267 44.76 16.0333 44.34 15.66 43.5C15.38 42.94 15.4733 41.8667 15.94 40.28C17.8067 34.8667 21.3533 30.1533 26.58 26.14C35.1667 19.42 45.9 15.5467 58.78 14.52ZM73.9 25.44C70.1667 25.0667 67.46 25.0667 65.78 25.44C65.78 26.9333 65.3133 30.48 64.38 36.08C62.3267 49.6133 59.5267 62.3533 55.98 74.3L55.7 75.28L56.4 74.58C58.8267 72.34 61.4867 70.9867 64.38 70.52C64.7533 70.4267 65.4533 70.38 66.48 70.38C67.88 70.38 69.98 70.1933 72.78 69.82C83.6067 68.0467 91.4933 63.1933 96.44 55.26C97.84 53.02 98.8667 50.64 99.52 48.12C100.92 43.4533 100.407 39.3 97.98 35.66C97.0467 34.0733 95.5533 32.5333 93.5 31.04C88.5533 27.8667 82.02 26 73.9 25.44Z" fill="white"/>
<path d="M77.97 94.82C77.17 94.82 76.55 94.6 76.11 94.16C75.69 93.7 75.48 93.15 75.48 92.51C75.48 92.35 75.5 92.16 75.54 91.94C75.6 91.72 75.67 91.53 75.75 91.37C76.01 91.49 76.39 91.58 76.89 91.64C77.41 91.68 78.01 91.7 78.69 91.7C79.71 91.7 80.86 91.66 82.14 91.58C83.44 91.48 84.68 91.38 85.86 91.28C87.04 91.18 88.08 91.09 88.98 91.01C89.88 90.91 90.46 90.86 90.72 90.86C91.46 90.86 91.99 91.14 92.31 91.7C92.65 92.24 92.9 92.97 93.06 93.89C92.54 93.85 92.02 93.82 91.5 93.8C91 93.76 90.57 93.74 90.21 93.74C89.57 93.74 88.92 93.76 88.26 93.8C87.62 93.84 86.97 93.9 86.31 93.98C86.03 94.56 85.72 95.25 85.38 96.05C85.04 96.83 84.7 97.65 84.36 98.51C84.04 99.37 83.73 100.23 83.43 101.09C83.13 101.93 82.87 102.69 82.65 103.37C82.21 104.69 81.82 105.91 81.48 107.03C81.16 108.15 80.87 109.2 80.61 110.18C80.37 111.14 80.16 112.06 79.98 112.94C79.8 113.82 79.64 114.68 79.5 115.52C78.16 115.32 77.04 114.48 76.14 113C76.3 112.38 76.49 111.71 76.71 110.99C76.95 110.25 77.22 109.42 77.52 108.5C77.84 107.56 78.21 106.5 78.63 105.32C79.05 104.14 79.53 102.8 80.07 101.3C80.27 100.74 80.48 100.16 80.7 99.56C80.92 98.94 81.13 98.33 81.33 97.73C81.55 97.13 81.74 96.55 81.9 95.99C82.08 95.43 82.23 94.92 82.35 94.46C81.51 94.56 80.71 94.65 79.95 94.73C79.21 94.79 78.55 94.82 77.97 94.82ZM102.057 100.22C102.717 100.22 103.227 100.4 103.587 100.76C103.967 101.12 104.157 101.62 104.157 102.26C104.157 102.42 104.137 102.59 104.097 102.77C104.077 102.93 104.047 103.07 104.007 103.19C103.747 103.15 103.457 103.12 103.137 103.1C102.817 103.06 102.437 103.04 101.997 103.04C101.137 103.04 100.267 103.12 99.3867 103.28C98.5067 103.42 97.6667 103.54 96.8667 103.64C96.4067 104.7 95.9867 105.73 95.6067 106.73C95.2267 107.71 94.8967 108.61 94.6167 109.43C94.3567 110.25 94.1467 110.96 93.9867 111.56C93.8467 112.16 93.7667 112.61 93.7467 112.91C95.3667 112.57 96.9967 112.28 98.6367 112.04C100.297 111.8 102.037 111.62 103.857 111.5C104.077 111.84 104.257 112.21 104.397 112.61C104.557 113.01 104.637 113.44 104.637 113.9C104.637 114.02 104.637 114.15 104.637 114.29C104.637 114.43 104.617 114.57 104.577 114.71C104.017 114.69 103.427 114.67 102.807 114.65C102.187 114.65 101.377 114.65 100.377 114.65C99.7167 114.65 99.0867 114.66 98.4867 114.68C97.9067 114.72 97.3167 114.77 96.7167 114.83C96.1167 114.89 95.4767 114.97 94.7967 115.07C94.1367 115.17 93.3867 115.29 92.5467 115.43C91.6267 115.07 90.7367 114.19 89.8767 112.79C90.2167 112.07 90.6867 110.98 91.2867 109.52C91.9067 108.04 92.6867 106.07 93.6267 103.61C92.7267 103.33 92.1367 102.83 91.8567 102.11C91.9567 102.01 92.2467 101.89 92.7267 101.75C93.2067 101.59 93.7967 101.43 94.4967 101.27C94.7967 100.49 95.0467 99.81 95.2467 99.23C95.4667 98.65 95.6567 98.11 95.8167 97.61C95.9767 97.09 96.1167 96.59 96.2367 96.11C96.3767 95.61 96.5067 95.07 96.6267 94.49C95.9267 94.45 95.3767 94.26 94.9767 93.92C94.5767 93.56 94.3767 93.1 94.3767 92.54C94.3767 92.38 94.3967 92.19 94.4367 91.97C94.4967 91.75 94.5567 91.56 94.6167 91.4C95.0167 91.46 95.3967 91.5 95.7567 91.52C96.1367 91.54 96.6267 91.55 97.2267 91.55C98.4867 91.55 99.6667 91.52 100.767 91.46C101.867 91.38 102.857 91.3 103.737 91.22C104.637 91.14 105.407 91.07 106.047 91.01C106.687 90.93 107.177 90.89 107.517 90.89C107.977 90.89 108.387 91.13 108.747 91.61C109.107 92.09 109.377 92.77 109.557 93.65C108.937 93.59 108.427 93.55 108.027 93.53C107.647 93.51 107.307 93.5 107.007 93.5C105.907 93.5 104.897 93.56 103.977 93.68C103.077 93.78 102.207 93.89 101.367 94.01C101.247 94.19 101.107 94.42 100.947 94.7C100.807 94.98 100.617 95.37 100.377 95.87C100.137 96.37 99.8367 97 99.4767 97.76C99.1367 98.52 98.7167 99.47 98.2167 100.61C98.9767 100.49 99.6867 100.4 100.347 100.34C101.027 100.26 101.597 100.22 102.057 100.22Z" fill="white"/>
</g>
</svg>
